<?xml version="1.0" encoding="UTF-8" standalone="no"?>
<!DOCTYPE svg PUBLIC "-//W3C//DTD SVG 1.1//EN"
 "http://www.w3.org/Graphics/SVG/1.1/DTD/svg11.dtd">
<!-- Generated by graphviz version 13.1.2 (20250808.2320)
 -->
<!-- Title: ERD Pages: 1 -->
<svg width="947pt" height="689pt"
 viewBox="0.00 0.00 947.00 689.00" xmlns="http://www.w3.org/2000/svg" xmlns:xlink="http://www.w3.org/1999/xlink">
<g id="graph0" class="graph" transform="scale(1 1) rotate(0) translate(4 684.5)">
<title>ERD</title>
<polygon fill="white" stroke="none" points="-4,4 -4,-684.5 943,-684.5 943,4 -4,4"/>
<!-- sites -->
<g id="node1" class="node">
<title>sites</title>
<polygon fill="none" stroke="black" points="707.5,-379.75 707.5,-474.75 939,-474.75 939,-379.75 707.5,-379.75"/>
<text xml:space="preserve" text-anchor="middle" x="729.38" y="-421.82" font-family="Helvetica,sans-Serif" font-size="14.00">sites</text>
<polyline fill="none" stroke="black" points="751.25,-379.75 751.25,-474.75"/>
<text xml:space="preserve" text-anchor="middle" x="845.12" y="-457.45" font-family="Helvetica,sans-Serif" font-size="14.00">id: UUID (PK, NN)</text>
<polyline fill="none" stroke="black" points="751.25,-451 939,-451"/>
<text xml:space="preserve" text-anchor="middle" x="845.12" y="-433.7" font-family="Helvetica,sans-Serif" font-size="14.00">display_name: TEXT (NN)</text>
<polyline fill="none" stroke="black" points="751.25,-427.25 939,-427.25"/>
<text xml:space="preserve" text-anchor="middle" x="845.12" y="-409.95" font-family="Helvetica,sans-Serif" font-size="14.00">tz: TEXT (NN)</text>
<polyline fill="none" stroke="black" points="751.25,-403.5 939,-403.5"/>
<text xml:space="preserve" text-anchor="middle" x="845.12" y="-386.2" font-family="Helvetica,sans-Serif" font-size="14.00">created_at: DATETIME (NN)</text>
</g>
<!-- devices -->
<g id="node2" class="node">
<title>devices</title>
<polygon fill="none" stroke="black" points="422,-501.75 422,-596.75 671.5,-596.75 671.5,-501.75 422,-501.75"/>
<text xml:space="preserve" text-anchor="middle" x="452.88" y="-543.83" font-family="Helvetica,sans-Serif" font-size="14.00">devices</text>
<polyline fill="none" stroke="black" points="483.75,-501.75 483.75,-596.75"/>
<text xml:space="preserve" text-anchor="middle" x="577.62" y="-579.45" font-family="Helvetica,sans-Serif" font-size="14.00">id: UUID (PK, NN)</text>
<polyline fill="none" stroke="black" points="483.75,-573 671.5,-573"/>
<text xml:space="preserve" text-anchor="middle" x="577.62" y="-555.7" font-family="Helvetica,sans-Serif" font-size="14.00">site_id: UUID (NN, FK)</text>
<polyline fill="none" stroke="black" points="483.75,-549.25 671.5,-549.25"/>
<text xml:space="preserve" text-anchor="middle" x="577.62" y="-531.95" font-family="Helvetica,sans-Serif" font-size="14.00">model: TEXT</text>
<polyline fill="none" stroke="black" points="483.75,-525.5 671.5,-525.5"/>
<text xml:space="preserve" text-anchor="middle" x="577.62" y="-508.2" font-family="Helvetica,sans-Serif" font-size="14.00">created_at: DATETIME (NN)</text>
</g>
<!-- devices&#45;&gt;sites -->
<g id="edge1" class="edge">
<title>devices:site_id&#45;&gt;sites:id</title>
<path fill="none" stroke="black" d="M671.5,-561.12C753.63,-561.12 837.25,-561.69 844.6,-486.82"/>
<polygon fill="black" stroke="black" points="848.08,-487.42 845.05,-477.26 841.09,-487.09 848.08,-487.42"/>
</g>
<!-- points -->
<g id="node3" class="node">
<title>points</title>
<polygon fill="none" stroke="black" points="426.88,-234.12 426.88,-400.38 666.62,-400.38 666.62,-234.12 426.88,-234.12"/>
<text xml:space="preserve" text-anchor="middle" x="452.88" y="-311.82" font-family="Helvetica,sans-Serif" font-size="14.00">points</text>
<polyline fill="none" stroke="black" points="478.88,-234.12 478.88,-400.38"/>
<text xml:space="preserve" text-anchor="middle" x="572.75" y="-383.07" font-family="Helvetica,sans-Serif" font-size="14.00">id: UUID (PK, NN)</text>
<polyline fill="none" stroke="black" points="478.88,-376.62 666.62,-376.62"/>
<text xml:space="preserve" text-anchor="middle" x="572.75" y="-359.32" font-family="Helvetica,sans-Serif" font-size="14.00">site_id: UUID (NN, FK)</text>
<polyline fill="none" stroke="black" points="478.88,-352.88 666.62,-352.88"/>
<text xml:space="preserve" text-anchor="middle" x="572.75" y="-335.57" font-family="Helvetica,sans-Serif" font-size="14.00">point_name: TEXT (NN)</text>
<polyline fill="none" stroke="black" points="478.88,-329.12 666.62,-329.12"/>
<text xml:space="preserve" text-anchor="middle" x="572.75" y="-311.82" font-family="Helvetica,sans-Serif" font-size="14.00">unit: TEXT (NN)</text>
<polyline fill="none" stroke="black" points="478.88,-305.38 666.62,-305.38"/>
<text xml:space="preserve" text-anchor="middle" x="572.75" y="-288.07" font-family="Helvetica,sans-Serif" font-size="14.00">tags: JSONB (NN)</text>
<polyline fill="none" stroke="black" points="478.88,-281.62 666.62,-281.62"/>
<text xml:space="preserve" text-anchor="middle" x="572.75" y="-264.32" font-family="Helvetica,sans-Serif" font-size="14.00">active: BOOLEAN (NN)</text>
<polyline fill="none" stroke="black" points="478.88,-257.88 666.62,-257.88"/>
<text xml:space="preserve" text-anchor="middle" x="572.75" y="-240.57" font-family="Helvetica,sans-Serif" font-size="14.00">created_at: DATETIME (NN)</text>
</g>
<!-- points&#45;&gt;sites -->
<g id="edge2" class="edge">
<title>points:site_id&#45;&gt;sites:id</title>
<path fill="none" stroke="black" d="M667.62,-364.75C719.63,-364.75 665.03,-444.74 707.5,-474.75 754.04,-507.64 833.32,-533.21 843.94,-487.09"/>
<polygon fill="black" stroke="black" points="847.4,-487.57 844.97,-477.26 840.44,-486.84 847.4,-487.57"/>
</g>
<!-- point_metadata_history -->
<g id="node4" class="node">
<title>point_metadata_history</title>
<polygon fill="none" stroke="black" points="9.75,-257.12 9.75,-423.38 376.25,-423.38 376.25,-257.12 9.75,-257.12"/>
<text xml:space="preserve" text-anchor="middle" x="88.25" y="-334.82" font-family="Helvetica,sans-Serif" font-size="14.00">point_metadata_history</text>
<polyline fill="none" stroke="black" points="166.75,-257.12 166.75,-423.38"/>
<text xml:space="preserve" text-anchor="middle" x="271.5" y="-406.07" font-family="Helvetica,sans-Serif" font-size="14.00">id: UUID (PK, NN)</text>
<polyline fill="none" stroke="black" points="166.75,-399.62 376.25,-399.62"/>
<text xml:space="preserve" text-anchor="middle" x="271.5" y="-382.32" font-family="Helvetica,sans-Serif" font-size="14.00">point_id: UUID (NN, FK)</text>
<polyline fill="none" stroke="black" points="166.75,-375.88 376.25,-375.88"/>
<text xml:space="preserve" text-anchor="middle" x="271.5" y="-358.57" font-family="Helvetica,sans-Serif" font-size="14.00">effective_from: DATETIME (NN)</text>
<polyline fill="none" stroke="black" points="166.75,-352.12 376.25,-352.12"/>
<text xml:space="preserve" text-anchor="middle" x="271.5" y="-334.82" font-family="Helvetica,sans-Serif" font-size="14.00">unit: TEXT (NN)</text>
<polyline fill="none" stroke="black" points="166.75,-328.38 376.25,-328.38"/>
<text xml:space="preserve" text-anchor="middle" x="271.5" y="-311.07" font-family="Helvetica,sans-Serif" font-size="14.00">tags: JSONB (NN)</text>
<polyline fill="none" stroke="black" points="166.75,-304.62 376.25,-304.62"/>
<text xml:space="preserve" text-anchor="middle" x="271.5" y="-287.32" font-family="Helvetica,sans-Serif" font-size="14.00">meta_hash: TEXT (NN)</text>
<polyline fill="none" stroke="black" points="166.75,-280.88 376.25,-280.88"/>
<text xml:space="preserve" text-anchor="middle" x="271.5" y="-263.57" font-family="Helvetica,sans-Serif" font-size="14.00">created_at: DATETIME (NN)</text>
</g>
<!-- point_metadata_history&#45;&gt;points -->
<g id="edge3" class="edge">
<title>point_metadata_history:point_id&#45;&gt;points:id</title>
<path fill="none" stroke="black" d="M377.25,-387.75C400.01,-387.75 404.3,-397.47 426.88,-400.38 486.91,-408.1 561.99,-458.78 571.7,-412.72"/>
<polygon fill="black" stroke="black" points="575.17,-413.16 572.61,-402.88 568.2,-412.52 575.17,-413.16"/>
</g>
<!-- measurements -->
<g id="node5" class="node">
<title>measurements</title>
<polygon fill="none" stroke="black" points="0,-0.5 0,-238 386,-238 386,-0.5 0,-0.5"/>
<text xml:space="preserve" text-anchor="middle" x="53.38" y="-113.83" font-family="Helvetica,sans-Serif" font-size="14.00">measurements</text>
<polyline fill="none" stroke="black" points="106.75,-0.5 106.75,-238"/>
<text xml:space="preserve" text-anchor="middle" x="246.38" y="-220.7" font-family="Helvetica,sans-Serif" font-size="14.00">id: UUID (PK, NN)</text>
<polyline fill="none" stroke="black" points="106.75,-214.25 386,-214.25"/>
<text xml:space="preserve" text-anchor="middle" x="246.38" y="-196.95" font-family="Helvetica,sans-Serif" font-size="14.00">point_id: UUID (NN, FK)</text>
<polyline fill="none" stroke="black" points="106.75,-190.5 386,-190.5"/>
<text xml:space="preserve" text-anchor="middle" x="246.38" y="-173.2" font-family="Helvetica,sans-Serif" font-size="14.00">measurement_timestamp: DATETIME (NN)</text>
<polyline fill="none" stroke="black" points="106.75,-166.75 386,-166.75"/>
<text xml:space="preserve" text-anchor="middle" x="246.38" y="-149.45" font-family="Helvetica,sans-Serif" font-size="14.00">created_at: DATETIME (NN)</text>
<polyline fill="none" stroke="black" points="106.75,-143 386,-143"/>
<text xml:space="preserve" text-anchor="middle" x="246.38" y="-125.7" font-family="Helvetica,sans-Serif" font-size="14.00">point_name: TEXT (NN)</text>
<polyline fill="none" stroke="black" points="106.75,-119.25 386,-119.25"/>
<text xml:space="preserve" text-anchor="middle" x="246.38" y="-101.95" font-family="Helvetica,sans-Serif" font-size="14.00">unit: TEXT</text>
<polyline fill="none" stroke="black" points="106.75,-95.5 386,-95.5"/>
<text xml:space="preserve" text-anchor="middle" x="246.38" y="-78.2" font-family="Helvetica,sans-Serif" font-size="14.00">value: NUMERIC(14, 6) (NN)</text>
<polyline fill="none" stroke="black" points="106.75,-71.75 386,-71.75"/>
<text xml:space="preserve" text-anchor="middle" x="246.38" y="-54.45" font-family="Helvetica,sans-Serif" font-size="14.00">quality: INTEGER</text>
<polyline fill="none" stroke="black" points="106.75,-48 386,-48"/>
<text xml:space="preserve" text-anchor="middle" x="246.38" y="-30.7" font-family="Helvetica,sans-Serif" font-size="14.00">schema_version: INTEGER (NN)</text>
<polyline fill="none" stroke="black" points="106.75,-24.25 386,-24.25"/>
<text xml:space="preserve" text-anchor="middle" x="246.38" y="-6.95" font-family="Helvetica,sans-Serif" font-size="14.00">meta_hash: TEXT</text>
</g>
<!-- measurements&#45;&gt;points -->
<g id="edge4" class="edge">
<title>measurements:point_id&#45;&gt;points:id</title>
<path fill="none" stroke="black" d="M386,-202.38C475.86,-202.38 357.41,-343.38 426.88,-400.38 473.77,-438.85 560.6,-462.96 571.59,-412.82"/>
<polygon fill="black" stroke="black" points="575.08,-413.18 572.6,-402.88 568.11,-412.48 575.08,-413.18"/>
</g>
<!-- device_state -->
<g id="node6" class="node">
<title>device_state</title>
<polygon fill="none" stroke="black" points="45.38,-442.5 45.38,-680 340.62,-680 340.62,-442.5 45.38,-442.5"/>
<text xml:space="preserve" text-anchor="middle" x="91.25" y="-555.83" font-family="Helvetica,sans-Serif" font-size="14.00">device_state</text>
<polyline fill="none" stroke="black" points="137.12,-442.5 137.12,-680"/>
<text xml:space="preserve" text-anchor="middle" x="238.88" y="-662.7" font-family="Helvetica,sans-Serif" font-size="14.00">id: UUID (PK, NN, FK)</text>
<polyline fill="none" stroke="black" points="137.12,-656.25 340.62,-656.25"/>
<text xml:space="preserve" text-anchor="middle" x="238.88" y="-638.95" font-family="Helvetica,sans-Serif" font-size="14.00">last_seen_ts: DATETIME (NN)</text>
<polyline fill="none" stroke="black" points="137.12,-632.5 340.62,-632.5"/>
<text xml:space="preserve" text-anchor="middle" x="238.88" y="-615.2" font-family="Helvetica,sans-Serif" font-size="14.00">last_upload_ts: DATETIME</text>
<polyline fill="none" stroke="black" points="137.12,-608.75 340.62,-608.75"/>
<text xml:space="preserve" text-anchor="middle" x="238.88" y="-591.45" font-family="Helvetica,sans-Serif" font-size="14.00">queue_depth: INTEGER</text>
<polyline fill="none" stroke="black" points="137.12,-585 340.62,-585"/>
<text xml:space="preserve" text-anchor="middle" x="238.88" y="-567.7" font-family="Helvetica,sans-Serif" font-size="14.00">agent_version: TEXT</text>
<polyline fill="none" stroke="black" points="137.12,-561.25 340.62,-561.25"/>
<text xml:space="preserve" text-anchor="middle" x="238.88" y="-543.95" font-family="Helvetica,sans-Serif" font-size="14.00">poll_interval_s: INTEGER</text>
<polyline fill="none" stroke="black" points="137.12,-537.5 340.62,-537.5"/>
<text xml:space="preserve" text-anchor="middle" x="238.88" y="-520.2" font-family="Helvetica,sans-Serif" font-size="14.00">cpu_pct: NUMERIC(5, 2)</text>
<polyline fill="none" stroke="black" points="137.12,-513.75 340.62,-513.75"/>
<text xml:space="preserve" text-anchor="middle" x="238.88" y="-496.45" font-family="Helvetica,sans-Serif" font-size="14.00">disk_free_gb: NUMERIC(10, 2)</text>
<polyline fill="none" stroke="black" points="137.12,-490 340.62,-490"/>
<text xml:space="preserve" text-anchor="middle" x="238.88" y="-472.7" font-family="Helvetica,sans-Serif" font-size="14.00">status: VARCHAR(8) (NN)</text>
<polyline fill="none" stroke="black" points="137.12,-466.25 340.62,-466.25"/>
<text xml:space="preserve" text-anchor="middle" x="238.88" y="-448.95" font-family="Helvetica,sans-Serif" font-size="14.00">updated_at: DATETIME</text>
</g>
<!-- device_state&#45;&gt;devices -->
<g id="edge5" class="edge">
<title>device_state:id&#45;&gt;devices:id</title>
<path fill="none" stroke="black" d="M341.62,-668.12C447.12,-668.12 568.5,-704.43 577.14,-609.04"/>
<polygon fill="black" stroke="black" points="580.62,-609.4 577.56,-599.26 573.63,-609.1 580.62,-609.4"/>
</g>
</g>
</svg>
